<?xml version="1.0" encoding="utf-8"?>
<!-- Generator: Adobe Illustrator 27.5.0, SVG Export Plug-In . SVG Version: 6.00 Build 0)  -->
<svg version="1.2" baseProfile="tiny-ps" id="katman_1"
	 xmlns="http://www.w3.org/2000/svg" xmlns:xlink="http://www.w3.org/1999/xlink" x="0px" y="0px" viewBox="0 0 96 96"
	 overflow="visible" xml:space="preserve">
<title>Inanlar Premium</title>
<style type="text/css">
	.st0{fill:url(#SVGID_1_);}
	.st1{fill:url(#SVGID_00000152960170598199433900000002492078725114707863_);}
	.st2{fill:url(#SVGID_00000074411234712786609080000001307916104891013804_);}
	.st3{fill:url(#SVGID_00000004515002011288186480000007532522801697135290_);}
	.st4{fill:url(#SVGID_00000106865663452054150010000001864362683068772016_);}
	.st5{fill:url(#SVGID_00000174589043246064716310000017776932663262128535_);}
	.st6{fill:url(#SVGID_00000176765934090497032610000005310902768327191221_);}
</style>
<g>
	<g>
		<g>
			<g>
				<g>
					
						<linearGradient id="SVGID_1_" gradientUnits="userSpaceOnUse" x1="27.7953" y1="51.8804" x2="55.2312" y2="51.8804" gradientTransform="matrix(1 0 0 -1 0 96)">
						<stop  offset="0" style="stop-color:#E0BC62"/>
						<stop  offset="1" style="stop-color:#9E8651"/>
					</linearGradient>
					<polygon class="st0" points="55.2,43.7 27.8,10.6 27.8,70.5 27.8,77.6 27.8,77.6 36.7,77.6 36.7,33.9 55.2,56.4 					"/>
					
						<linearGradient id="SVGID_00000085251112243452282290000007384778613829772170_" gradientUnits="userSpaceOnUse" x1="39.8103" y1="45.9197" x2="67.2463" y2="45.9197" gradientTransform="matrix(1 0 0 -1 0 96)">
						<stop  offset="0" style="stop-color:#E0BC62"/>
						<stop  offset="1" style="stop-color:#9E8651"/>
					</linearGradient>
					<polygon style="fill:url(#SVGID_00000085251112243452282290000007384778613829772170_);" points="58.3,66.1 39.8,43.7 
						39.8,56.4 67.3,89.5 67.3,31 67.3,31 67.3,10.6 58.3,21.2 					"/>
					
						<linearGradient id="SVGID_00000020378610236069653650000014496282983418520231_" gradientUnits="userSpaceOnUse" x1="39.8103" y1="67.6244" x2="55.2303" y2="67.6244" gradientTransform="matrix(1 0 0 -1 0 96)">
						<stop  offset="0" style="stop-color:#E0BC62"/>
						<stop  offset="1" style="stop-color:#9E8651"/>
					</linearGradient>
					<polygon style="fill:url(#SVGID_00000020378610236069653650000014496282983418520231_);" points="55.2,19 39.8,19 39.8,19.2 
						55.2,37.7 					"/>
					
						<linearGradient id="SVGID_00000091709881653899321670000013439957473173845911_" gradientUnits="userSpaceOnUse" x1="43.3141" y1="88.5516" x2="51.7323" y2="88.5516" gradientTransform="matrix(1 0 0 -1 0 96)">
						<stop  offset="0" style="stop-color:#E0BC62"/>
						<stop  offset="1" style="stop-color:#9E8651"/>
					</linearGradient>
					<path style="fill:url(#SVGID_00000091709881653899321670000013439957473173845911_);" d="M51.7,8.2l-4.1-5.6l-4.1,5.6l4.1,4.1
						L51.7,8.2z M47.6,6L49,7.9l-1.4,1.6L46.2,8L47.6,6z"/>
					
						<linearGradient id="SVGID_00000057145002377029411820000012570238417743764372_" gradientUnits="userSpaceOnUse" x1="48.332" y1="84.729" x2="55.2303" y2="84.729" gradientTransform="matrix(1 0 0 -1 0 96)">
						<stop  offset="0" style="stop-color:#E0BC62"/>
						<stop  offset="1" style="stop-color:#9E8651"/>
					</linearGradient>
					<polygon style="fill:url(#SVGID_00000057145002377029411820000012570238417743764372_);" points="55.2,16.1 55.2,6.5 
						48.4,13.5 50.8,16.1 					"/>
					
						<linearGradient id="SVGID_00000136392034733826990370000013083053837746854304_" gradientUnits="userSpaceOnUse" x1="39.8103" y1="84.729" x2="46.7086" y2="84.729" gradientTransform="matrix(1 0 0 -1 0 96)">
						<stop  offset="0" style="stop-color:#E0BC62"/>
						<stop  offset="1" style="stop-color:#9E8651"/>
					</linearGradient>
					<polygon style="fill:url(#SVGID_00000136392034733826990370000013083053837746854304_);" points="46.7,13.5 39.8,6.5 
						39.8,16.1 44.2,16.1 					"/>
					
						<linearGradient id="SVGID_00000144318208998059806120000011997023811844392862_" gradientUnits="userSpaceOnUse" x1="45.8968" y1="80.8416" x2="49.1496" y2="80.8416" gradientTransform="matrix(1 0 0 -1 0 96)">
						<stop  offset="0" style="stop-color:#E0BC62"/>
						<stop  offset="1" style="stop-color:#9E8651"/>
					</linearGradient>
					<polygon style="fill:url(#SVGID_00000144318208998059806120000011997023811844392862_);" points="45.9,16.1 49.1,16.1 
						47.6,14.3 					"/>
				</g>
			</g>
		</g>
	</g>
</g>
</svg>
